<mxfile host="app.diagrams.net" agent="Mozilla/5.0 (Windows NT 10.0; Win64; x64) AppleWebKit/537.36 (KHTML, like Gecko) Chrome/134.0.0.0 Safari/537.36 Edg/134.0.0.0" version="26.1.0">
  <diagram name="Page-1" id="cB6ODa--PGLmmmxYzo5H">
    <mxGraphModel dx="1426" dy="1881" grid="1" gridSize="10" guides="1" tooltips="1" connect="1" arrows="1" fold="1" page="1" pageScale="1" pageWidth="850" pageHeight="1100" math="0" shadow="0">
      <root>
        <mxCell id="0" />
        <mxCell id="1" parent="0" />
        <mxCell id="Ps2nF8Sr608alfjsM2kv-1" value="Product Management" style="rounded=0;whiteSpace=wrap;html=1;fillColor=light-dark(#B266FF,var(--ge-dark-color, #121212));" vertex="1" parent="1">
          <mxGeometry x="130" y="110" width="120" height="60" as="geometry" />
        </mxCell>
        <mxCell id="Ps2nF8Sr608alfjsM2kv-2" value="External API" style="rounded=0;whiteSpace=wrap;html=1;fillColor=light-dark(#FF9933,var(--ge-dark-color, #121212));" vertex="1" parent="1">
          <mxGeometry x="510" y="110" width="120" height="60" as="geometry" />
        </mxCell>
        <mxCell id="Ps2nF8Sr608alfjsM2kv-11" value="" style="edgeStyle=orthogonalEdgeStyle;rounded=0;orthogonalLoop=1;jettySize=auto;html=1;" edge="1" parent="1" source="Ps2nF8Sr608alfjsM2kv-3" target="Ps2nF8Sr608alfjsM2kv-4">
          <mxGeometry relative="1" as="geometry" />
        </mxCell>
        <mxCell id="Ps2nF8Sr608alfjsM2kv-3" value="Quality Computation" style="rounded=0;whiteSpace=wrap;html=1;fillColor=light-dark(#74FF23,var(--ge-dark-color, #121212));" vertex="1" parent="1">
          <mxGeometry x="130" y="270" width="120" height="60" as="geometry" />
        </mxCell>
        <mxCell id="Ps2nF8Sr608alfjsM2kv-15" style="edgeStyle=orthogonalEdgeStyle;rounded=0;orthogonalLoop=1;jettySize=auto;html=1;exitX=1;exitY=0.75;exitDx=0;exitDy=0;" edge="1" parent="1" source="Ps2nF8Sr608alfjsM2kv-4" target="Ps2nF8Sr608alfjsM2kv-7">
          <mxGeometry relative="1" as="geometry" />
        </mxCell>
        <mxCell id="Ps2nF8Sr608alfjsM2kv-4" value="Cost Computation" style="rounded=0;whiteSpace=wrap;html=1;fillColor=light-dark(#12FF0A,var(--ge-dark-color, #121212));" vertex="1" parent="1">
          <mxGeometry x="320" y="270" width="120" height="60" as="geometry" />
        </mxCell>
        <mxCell id="Ps2nF8Sr608alfjsM2kv-5" value="Rules Engine" style="rounded=0;whiteSpace=wrap;html=1;fillColor=light-dark(#47FF3A,var(--ge-dark-color, #121212));" vertex="1" parent="1">
          <mxGeometry x="320" y="410" width="120" height="60" as="geometry" />
        </mxCell>
        <mxCell id="Ps2nF8Sr608alfjsM2kv-6" value="Price Dashboard" style="rounded=0;whiteSpace=wrap;html=1;fillColor=light-dark(#B266FF,var(--ge-dark-color, #121212));" vertex="1" parent="1">
          <mxGeometry x="130" y="520" width="120" height="60" as="geometry" />
        </mxCell>
        <mxCell id="Ps2nF8Sr608alfjsM2kv-10" value="" style="endArrow=classic;html=1;rounded=0;entryX=0.25;entryY=0;entryDx=0;entryDy=0;exitX=0.25;exitY=1;exitDx=0;exitDy=0;" edge="1" parent="1" source="Ps2nF8Sr608alfjsM2kv-1" target="Ps2nF8Sr608alfjsM2kv-3">
          <mxGeometry width="50" height="50" relative="1" as="geometry">
            <mxPoint x="160" y="240" as="sourcePoint" />
            <mxPoint x="210" y="190" as="targetPoint" />
          </mxGeometry>
        </mxCell>
        <mxCell id="Ps2nF8Sr608alfjsM2kv-7" value="Data Storage" style="rounded=0;whiteSpace=wrap;html=1;fillColor=light-dark(#33FFFF,var(--ge-dark-color, #121212));" vertex="1" parent="1">
          <mxGeometry x="540" y="520" width="120" height="60" as="geometry" />
        </mxCell>
        <mxCell id="Ps2nF8Sr608alfjsM2kv-14" style="edgeStyle=orthogonalEdgeStyle;rounded=0;orthogonalLoop=1;jettySize=auto;html=1;exitX=0;exitY=1;exitDx=0;exitDy=0;entryX=0.392;entryY=-0.033;entryDx=0;entryDy=0;entryPerimeter=0;" edge="1" parent="1" source="Ps2nF8Sr608alfjsM2kv-4" target="Ps2nF8Sr608alfjsM2kv-6">
          <mxGeometry relative="1" as="geometry">
            <mxPoint x="320" y="350" as="sourcePoint" />
            <mxPoint x="180" y="510" as="targetPoint" />
            <Array as="points">
              <mxPoint x="320" y="360" />
              <mxPoint x="250" y="360" />
              <mxPoint x="250" y="437" />
              <mxPoint x="150" y="437" />
              <mxPoint x="150" y="500" />
              <mxPoint x="177" y="500" />
            </Array>
          </mxGeometry>
        </mxCell>
        <mxCell id="Ps2nF8Sr608alfjsM2kv-16" value="" style="endArrow=classic;startArrow=classic;html=1;rounded=0;exitX=0.5;exitY=0;exitDx=0;exitDy=0;" edge="1" parent="1" source="Ps2nF8Sr608alfjsM2kv-5">
          <mxGeometry width="50" height="50" relative="1" as="geometry">
            <mxPoint x="400" y="460" as="sourcePoint" />
            <mxPoint x="380" y="330" as="targetPoint" />
            <Array as="points">
              <mxPoint x="380" y="330" />
            </Array>
          </mxGeometry>
        </mxCell>
        <mxCell id="Ps2nF8Sr608alfjsM2kv-17" value="" style="endArrow=classic;startArrow=classic;html=1;rounded=0;exitX=0.5;exitY=0;exitDx=0;exitDy=0;" edge="1" parent="1">
          <mxGeometry width="50" height="50" relative="1" as="geometry">
            <mxPoint x="380" y="410" as="sourcePoint" />
            <mxPoint x="380" y="330" as="targetPoint" />
            <Array as="points">
              <mxPoint x="380" y="360" />
              <mxPoint x="380" y="330" />
            </Array>
          </mxGeometry>
        </mxCell>
        <mxCell id="Ps2nF8Sr608alfjsM2kv-18" value="" style="endArrow=classic;startArrow=classic;html=1;rounded=0;exitX=0.5;exitY=0;exitDx=0;exitDy=0;" edge="1" parent="1">
          <mxGeometry width="50" height="50" relative="1" as="geometry">
            <mxPoint x="380" y="410" as="sourcePoint" />
            <mxPoint x="380" y="330" as="targetPoint" />
            <Array as="points">
              <mxPoint x="380" y="360" />
              <mxPoint x="380" y="330" />
            </Array>
          </mxGeometry>
        </mxCell>
        <mxCell id="Ps2nF8Sr608alfjsM2kv-19" value="" style="endArrow=classic;startArrow=classic;html=1;rounded=0;entryX=0.25;entryY=1;entryDx=0;entryDy=0;exitX=1;exitY=0;exitDx=0;exitDy=0;" edge="1" parent="1" source="Ps2nF8Sr608alfjsM2kv-4" target="Ps2nF8Sr608alfjsM2kv-2">
          <mxGeometry width="50" height="50" relative="1" as="geometry">
            <mxPoint x="400" y="460" as="sourcePoint" />
            <mxPoint x="450" y="410" as="targetPoint" />
            <Array as="points">
              <mxPoint x="540" y="170" />
            </Array>
          </mxGeometry>
        </mxCell>
        <mxCell id="Ps2nF8Sr608alfjsM2kv-20" value="Product DB" style="shape=cylinder3;whiteSpace=wrap;html=1;boundedLbl=1;backgroundOutline=1;size=15;fillColor=light-dark(#00FFFF,var(--ge-dark-color, #121212));" vertex="1" parent="1">
          <mxGeometry x="250" y="630" width="60" height="80" as="geometry" />
        </mxCell>
        <mxCell id="Ps2nF8Sr608alfjsM2kv-21" value="&lt;strong data-end=&quot;2549&quot; data-start=&quot;2537&quot;&gt;Rules DB&lt;/strong&gt;" style="shape=cylinder3;whiteSpace=wrap;html=1;boundedLbl=1;backgroundOutline=1;size=15;fillColor=light-dark(#66FFFF,var(--ge-dark-color, #121212));" vertex="1" parent="1">
          <mxGeometry x="410" y="630" width="60" height="80" as="geometry" />
        </mxCell>
        <mxCell id="Ps2nF8Sr608alfjsM2kv-23" style="edgeStyle=orthogonalEdgeStyle;rounded=0;orthogonalLoop=1;jettySize=auto;html=1;entryX=0.5;entryY=0;entryDx=0;entryDy=0;entryPerimeter=0;" edge="1" parent="1" source="Ps2nF8Sr608alfjsM2kv-5" target="Ps2nF8Sr608alfjsM2kv-21">
          <mxGeometry relative="1" as="geometry" />
        </mxCell>
        <mxCell id="Ps2nF8Sr608alfjsM2kv-24" value="" style="endArrow=classic;startArrow=classic;html=1;rounded=0;entryX=0.167;entryY=1.05;entryDx=0;entryDy=0;entryPerimeter=0;exitX=0.367;exitY=0;exitDx=0;exitDy=0;exitPerimeter=0;" edge="1" parent="1" source="Ps2nF8Sr608alfjsM2kv-20" target="Ps2nF8Sr608alfjsM2kv-4">
          <mxGeometry width="50" height="50" relative="1" as="geometry">
            <mxPoint x="270" y="620" as="sourcePoint" />
            <mxPoint x="320" y="570" as="targetPoint" />
            <Array as="points">
              <mxPoint x="320" y="370" />
            </Array>
          </mxGeometry>
        </mxCell>
        <mxCell id="Ps2nF8Sr608alfjsM2kv-25" value="" style="endArrow=classic;startArrow=classic;html=1;rounded=0;entryX=1;entryY=1;entryDx=0;entryDy=0;exitX=0.855;exitY=0;exitDx=0;exitDy=4.35;exitPerimeter=0;" edge="1" parent="1" source="Ps2nF8Sr608alfjsM2kv-21" target="Ps2nF8Sr608alfjsM2kv-4">
          <mxGeometry width="50" height="50" relative="1" as="geometry">
            <mxPoint x="400" y="460" as="sourcePoint" />
            <mxPoint x="450" y="410" as="targetPoint" />
          </mxGeometry>
        </mxCell>
        <mxCell id="Ps2nF8Sr608alfjsM2kv-29" style="edgeStyle=orthogonalEdgeStyle;rounded=0;orthogonalLoop=1;jettySize=auto;html=1;entryX=0.75;entryY=0;entryDx=0;entryDy=0;" edge="1" parent="1" source="Ps2nF8Sr608alfjsM2kv-27" target="Ps2nF8Sr608alfjsM2kv-2">
          <mxGeometry relative="1" as="geometry" />
        </mxCell>
        <mxCell id="Ps2nF8Sr608alfjsM2kv-30" value="Fetches real-time data" style="edgeLabel;html=1;align=center;verticalAlign=middle;resizable=0;points=[];" vertex="1" connectable="0" parent="Ps2nF8Sr608alfjsM2kv-29">
          <mxGeometry x="0.0833" relative="1" as="geometry">
            <mxPoint as="offset" />
          </mxGeometry>
        </mxCell>
        <mxCell id="Ps2nF8Sr608alfjsM2kv-27" value="External Market Factors" style="ellipse;shape=cloud;whiteSpace=wrap;html=1;fillColor=light-dark(#FF8000,var(--ge-dark-color, #121212));" vertex="1" parent="1">
          <mxGeometry x="660" y="10" width="120" height="80" as="geometry" />
        </mxCell>
        <mxCell id="Ps2nF8Sr608alfjsM2kv-31" value="" style="endArrow=classic;html=1;rounded=0;entryX=0;entryY=0.25;entryDx=0;entryDy=0;exitX=0;exitY=0.5;exitDx=0;exitDy=0;exitPerimeter=0;" edge="1" parent="1" source="Ps2nF8Sr608alfjsM2kv-20" target="Ps2nF8Sr608alfjsM2kv-1">
          <mxGeometry width="50" height="50" relative="1" as="geometry">
            <mxPoint x="80" y="690" as="sourcePoint" />
            <mxPoint x="40" y="130" as="targetPoint" />
            <Array as="points">
              <mxPoint x="10" y="490" />
            </Array>
          </mxGeometry>
        </mxCell>
        <mxCell id="Ps2nF8Sr608alfjsM2kv-32" value="&lt;strong data-end=&quot;1978&quot; data-start=&quot;1951&quot;&gt;predefined static rules&lt;/strong&gt;" style="text;html=1;align=center;verticalAlign=middle;resizable=0;points=[];autosize=1;strokeColor=none;fillColor=none;" vertex="1" parent="1">
          <mxGeometry x="115" y="340" width="150" height="30" as="geometry" />
        </mxCell>
        <mxCell id="Ps2nF8Sr608alfjsM2kv-33" value="static rules and external market factors.&quot;" style="text;html=1;align=center;verticalAlign=middle;resizable=0;points=[];autosize=1;strokeColor=none;fillColor=none;" vertex="1" parent="1">
          <mxGeometry x="280" y="230" width="240" height="30" as="geometry" />
        </mxCell>
        <mxCell id="Ps2nF8Sr608alfjsM2kv-34" value="This module manages the &lt;strong data-end=&quot;2902&quot; data-start=&quot;2877&quot;&gt;dynamic pricing rules&lt;/strong&gt; and allows real-time updates without modifying the core logic." style="text;html=1;align=center;verticalAlign=middle;resizable=0;points=[];autosize=1;strokeColor=none;fillColor=none;" vertex="1" parent="1">
          <mxGeometry x="40" y="468" width="620" height="30" as="geometry" />
        </mxCell>
        <mxCell id="Ps2nF8Sr608alfjsM2kv-35" value="The External API fetches real-time &lt;strong data-end=&quot;3499&quot; data-start=&quot;3421&quot;&gt;competitor pricing, supplier costs, demand trends, and market fluctuations&lt;/strong&gt;" style="text;html=1;align=center;verticalAlign=middle;resizable=0;points=[];autosize=1;strokeColor=none;fillColor=none;" vertex="1" parent="1">
          <mxGeometry x="265" y="-20" width="640" height="30" as="geometry" />
        </mxCell>
        <mxCell id="Ps2nF8Sr608alfjsM2kv-36" value="Stores all necessary data, including product details, pricing rules, and computed prices." style="text;html=1;align=center;verticalAlign=middle;resizable=0;points=[];autosize=1;strokeColor=none;fillColor=none;" vertex="1" parent="1">
          <mxGeometry x="500" y="590" width="490" height="30" as="geometry" />
        </mxCell>
      </root>
    </mxGraphModel>
  </diagram>
</mxfile>
